<?xml version="1.0" encoding="UTF-8"?>
<svg id="Layer_1" data-name="Layer 1" xmlns="http://www.w3.org/2000/svg" viewBox="0 0 500 500">
  <defs>
    <style>
      .cls-1 {
        fill: #061213;
      }
    </style>
  </defs>
  <path class="cls-1" d="M439.07,209.18c-5-22.56-14.11-43.67-26.46-62.43-19.18-29.21-46.32-52.95-78.36-68.23-25.06-11.93-53.15-18.73-82.82-18.93h-3.93c-105.73,1.33-191.02,86.07-191.02,190.39s86.64,190.44,193.54,190.44c30.16,0,58.75-6.78,84.22-18.91,32.04-15.28,59.18-38.97,78.36-68.21,12.36-18.81,21.46-39.92,26.46-62.53,2.93-13.11,4.45-26.76,4.45-40.79s-1.53-27.64-4.45-40.79ZM335.24,401.6h-.02c-25.24,13.73-54.28,21.59-85.19,21.59-98.1,0-177.54-78.96-176.04-175.91,1.45-93.42,79.19-169.46,174.14-170.41,31.64-.35,61.33,7.53,87.09,21.56,0,0,.02,0,.02.05v303.12Z"/>
</svg>