<?xml version="1.0" encoding="UTF-8"?>
<svg id="Layer_1" data-name="Layer 1" xmlns="http://www.w3.org/2000/svg" viewBox="0 0 500 500">
  <defs>
    <style>
      .cls-1 {
        fill: #061213;
      }
    </style>
  </defs>
  <path class="cls-1" d="M0,0v500h500V0H0ZM439.07,290.77c-5.01,22.61-14.11,43.72-26.47,62.53-19.18,29.24-46.32,52.93-78.36,68.21-25.46,12.13-54.05,18.91-84.21,18.91-106.91,0-193.55-85.24-193.55-190.45S141.77,60.91,247.5,59.58h3.93c29.66.2,57.75,7.01,82.81,18.94,32.04,15.28,59.18,39.02,78.36,68.23,12.36,18.76,21.46,39.87,26.47,62.43,2.92,13.16,4.45,26.81,4.45,40.79s-1.53,27.69-4.45,40.8Z"/>
  <path class="cls-1" d="M335.24,98.48v303.12h-.02c-25.24,13.73-54.28,21.58-85.19,21.58-98.1,0-177.54-78.96-176.04-175.91,1.45-93.42,79.19-169.45,174.13-170.4,31.64-.35,61.33,7.52,87.1,21.56,0,0,.02,0,.02.05Z"/>
</svg>