<?xml version="1.0" encoding="UTF-8"?>
<svg id="Layer_1" data-name="Layer 1" xmlns="http://www.w3.org/2000/svg" viewBox="0 0 500 500">
  <defs>
    <style>
      .cls-1 {
        fill: #061213;
      }
    </style>
  </defs>
  <path class="cls-1" d="M0,0v500h500V0H0ZM423.41,252.03c0,3.85-3.13,6.97-6.98,6.97h-189.92c-5.77,0-9.05,6.61-5.52,11.18l137.11,179.67c2.33,3.05,1.75,7.4-1.3,9.75l-3.15,2.4c-3.05,2.33-7.43,1.75-9.75-1.3l-144.05-188.71c-2.8-3.66-8.3-3.66-11.08,0l-32.64,42.77c-2.35,3.05-6.73,3.65-9.78,1.3l-3.15-2.4c-3.05-2.33-3.63-6.71-1.3-9.76l25.73-33.72c3.51-4.57.23-11.18-5.52-11.18h-78.54c-3.85,0-6.98-3.12-6.98-6.97v-3.96c0-3.85,3.13-6.97,6.98-6.97h78.61c5.75,0,9.03-6.61,5.53-11.18l-25.81-33.82c-2.33-3.08-1.75-7.43,1.32-9.78l3.13-2.38c3.08-2.35,7.43-1.75,9.75,1.3l32.67,42.77c2.78,3.66,8.28,3.66,11.08,0L343.9,39.3c2.32-3.05,6.7-3.63,9.75-1.3l3.15,2.4c3.05,2.32,3.63,6.7,1.3,9.75l-137.21,179.77c-3.51,4.57-.23,11.18,5.52,11.18h190.02c3.85,0,6.98,3.12,6.98,6.97v3.96Z"/>
</svg>