<?xml version="1.0" encoding="UTF-8"?>
<svg id="Layer_1" data-name="Layer 1" xmlns="http://www.w3.org/2000/svg" viewBox="0 0 500 500">
  <defs>
    <style>
      .cls-1 {
        fill: #061213;
      }
    </style>
  </defs>
  <path class="cls-1" d="M422.21,233.87c0,45.04-18.74,85.75-48.99,115.03-7.38,7.14-23.71,21.67-48.79,32.65-27.34,11.95-51.85,13.89-66.25,13.95-40.39,0-77.01-15.93-103.69-41.79-27.26-26.38-44.16-63.1-44.16-103.71s16.9-77.33,44.16-103.71c26.12-25.32,61.78-41.13,101.18-41.77h2.51c23.65,0,42.83,19.18,42.83,42.83s-19.18,42.83-42.83,42.83-42.83-19.18-42.83-42.83c0-7.54,1.94-14.63,5.39-20.79-20.75,6.05-39.33,17.08-54.34,31.63-24.13,23.35-39.11,55.86-39.11,91.8s14.97,68.45,39.11,91.8c5.11,4.95,17.58,16.28,36.9,25.18,22.59,10.4,43.01,12.23,54.88,12.39,40.41,0,77.03-15.93,103.71-41.79,27.26-26.38,44.16-63.1,44.16-103.71s-16.9-77.31-44.14-103.71c-26.68-25.86-63.3-41.79-103.73-41.79-14.17.06-38,1.94-64.7,13.31-25.98,11.04-42.83,26.06-50.31,33.29-30.25,29.26-48.99,69.99-48.99,115.03s18.74,85.77,48.99,115.03c29.06,28.14,68.73,45.7,112.59,46.32,1.34.02,2.43,1.1,2.43,2.45v11.22c0,1.36-1.12,2.49-2.51,2.47-48.29-.64-91.98-19.94-123.99-50.97-33.27-32.17-53.9-76.97-53.9-126.52s20.63-94.35,53.9-126.52c32.57-31.55,77.23-50.99,126.5-50.99,44.82,0,85.43,17.68,115.03,46.36,30.25,29.26,48.99,69.97,48.99,115.01Z"/>
</svg>